<?xml version="1.0" encoding="utf-8"?>
<!-- Generator: Adobe Illustrator 25.2.3, SVG Export Plug-In . SVG Version: 6.00 Build 0)  -->
<svg version="1.1" id="Layer_1" xmlns="http://www.w3.org/2000/svg" xmlns:xlink="http://www.w3.org/1999/xlink" x="0px" y="0px"
	 viewBox="0 0 504 43" style="enable-background:new 0 0 504 43;" xml:space="preserve">
<g>
	<path d="M204.08,14.99h0.52c0.52-0.01,0.87-0.14,1.06-0.39s0.32-0.71,0.4-1.39l1.06-9.1h9.63v10.87h1.4v4.73h-2.95v-1.64h-8.33
		v1.64h-2.77v-4.72H204.08z M210.28,7.25l-0.64,6.09c-0.07,0.87-0.28,1.44-0.64,1.74h4.11V7.25H210.28z"/>
	<path d="M229.3,4.11v3.17h-5.06v2h4.67v3.19h-4.67v2.27h5.24v3.33h-8.89V4.11H229.3z"/>
	<path d="M235.66,18.06h-3.65V4.09c0.01,0,1.04,0,3.08-0.01s3.07,0,3.08,0.01c1.58,0,2.82,0.52,3.71,1.57
		c0.89,1.04,1.32,2.27,1.3,3.68c0,1.38-0.44,2.58-1.33,3.59c-0.88,1.01-2.11,1.52-3.68,1.52h-2.51L235.66,18.06L235.66,18.06z
		 M235.6,11.28h2.57c0.45,0,0.82-0.2,1.1-0.61s0.42-0.88,0.42-1.43c0-0.53-0.13-0.99-0.4-1.39c-0.27-0.39-0.64-0.59-1.12-0.59h-2.57
		L235.6,11.28L235.6,11.28z"/>
	<path d="M264.28,18.08h-4.13c-1.36-2.39-2.37-4.18-3.03-5.37c-0.58,0.05-0.98,0.08-1.18,0.08v5.29h-3.61v-5.29
		c-0.21,0-0.6-0.03-1.16-0.08c-0.68,1.18-1.69,2.97-3.05,5.37h-4.11v-0.54c1.45-2.27,2.78-4.36,3.99-6.25
		c-0.61-0.64-1.15-1.9-1.61-3.77c-0.2-0.81-0.8-1.12-1.81-0.92V4.15c2.91-0.67,4.59,0.13,5.04,2.39c0.29,1.49,0.75,2.41,1.38,2.75
		c0.25,0.16,0.7,0.24,1.34,0.24V4.11h3.61v5.43c0.65,0,1.1-0.08,1.36-0.24c0.27-0.16,0.5-0.42,0.71-0.77s0.35-0.67,0.42-0.94
		s0.16-0.62,0.25-1.05c0.42-2.26,2.1-3.06,5.02-2.39V6.6c-1-0.2-1.6,0.11-1.81,0.92c-0.46,1.88-1,3.13-1.59,3.77
		c1.45,2.27,2.78,4.36,3.99,6.25v0.54H264.28z"/>
	<path d="M274.25,16.35h-5.22l-0.8,1.74h-3.81v-0.5l6.4-13.61h1.67l6.34,13.61v0.5h-3.77L274.25,16.35z M271.63,9.92l-1.44,3.37
		h2.89L271.63,9.92z"/>
	<path d="M290.7,8.34c0,0.44-0.11,0.88-0.32,1.33s-0.49,0.81-0.84,1.09c0.56,0.28,0.99,0.69,1.29,1.22c0.3,0.53,0.45,1.12,0.45,1.78
		c0,1.24-0.39,2.25-1.17,3.05s-1.86,1.2-3.26,1.2h-6.72V4.05h6.16c1.3,0,2.36,0.39,3.18,1.18S290.7,7.05,290.7,8.34z M286.03,7.23
		h-2.25v2.33h2.25c0.33,0,0.59-0.11,0.78-0.32s0.29-0.47,0.3-0.78c0.01-0.33-0.08-0.62-0.27-0.87
		C286.65,7.35,286.38,7.23,286.03,7.23z M286.57,12.51h-2.79v2.31h2.81c0.64,0,1-0.36,1.08-1.08c0.03-0.33-0.06-0.62-0.27-0.87
		S286.92,12.51,286.57,12.51z"/>
	<path d="M305.17,18.08h-3.65v-5.59h-4.33v5.59h-3.65V4.11h3.65v5.05h4.33V4.11h3.65V18.08z"/>
	<path d="M316.58,10.88l-7.34,7.24h-1.08V4.11h3.65v6.82l7.28-6.88h1.14v14.03h-3.65L316.58,10.88L316.58,10.88z"/>
	<path d="M323.22,18.12V4.11h3.65v6.82l7.28-6.88h1.14v14.03h-3.65v-7.2l-7.34,7.24C324.3,18.12,323.22,18.12,323.22,18.12z
		 M327.43,2.55c0.57,0.55,1.38,0.83,2.41,0.83c1.06,0,1.88-0.28,2.44-0.83s0.87-1.36,0.91-2.42c-0.89-0.11-1.55-0.17-1.97-0.2
		c-0.11,0.71-0.58,1.06-1.42,1.06c-0.83,0-1.26-0.35-1.3-1.06l-1.97,0.2C326.56,1.19,326.86,2,327.43,2.55z"/>
	<path d="M351.14,16.35h-5.22l-0.8,1.74h-3.81v-0.5l6.4-13.61h1.67l6.34,13.61v0.5h-3.77L351.14,16.35z M348.53,9.92l-1.44,3.37
		h2.89L348.53,9.92z"/>
	<path d="M360.67,18.06h-3.65V4.09c0.01,0,1.04,0,3.08-0.01c2.04-0.01,3.07,0,3.08,0.01c1.58,0,2.82,0.52,3.71,1.57
		c0.89,1.04,1.32,2.27,1.3,3.68c0,1.38-0.44,2.58-1.33,3.59c-0.88,1.01-2.11,1.52-3.68,1.52h-2.51L360.67,18.06L360.67,18.06z
		 M360.61,11.28h2.57c0.45,0,0.82-0.2,1.1-0.61s0.42-0.88,0.42-1.43c0-0.53-0.13-0.99-0.4-1.39c-0.27-0.39-0.64-0.59-1.12-0.59
		h-2.57L360.61,11.28L360.61,11.28z"/>
	<path d="M375.48,7.92h0.08l2.25-3.81h3.93v0.54l-4.03,6.03l4.51,6.88v0.52h-4.07l-2.57-4.37h-0.12l-2.55,4.37h-4.11v-0.52
		l4.53-6.88l-4.05-6.03V4.11h3.95L375.48,7.92z"/>
	<path d="M388.79,15.13h1.77v2.95h-7.2v-2.95h1.77V7.07h-1.62V4.11h6.88v2.95h-1.62v8.07H388.79z"/>
	<path d="M403.6,8.34c0,0.44-0.11,0.88-0.32,1.33s-0.49,0.81-0.84,1.09c0.56,0.28,0.99,0.69,1.29,1.22c0.3,0.53,0.45,1.12,0.45,1.78
		c0,1.24-0.39,2.25-1.17,3.05s-1.87,1.2-3.26,1.2h-6.72V4.05h6.16c1.3,0,2.36,0.39,3.18,1.18S403.6,7.05,403.6,8.34z M398.93,7.23
		h-2.25v2.33h2.25c0.33,0,0.59-0.11,0.78-0.32s0.29-0.47,0.3-0.78c0.01-0.33-0.08-0.62-0.27-0.87
		C399.55,7.35,399.28,7.23,398.93,7.23z M399.47,12.51h-2.79v2.31h2.81c0.64,0,1-0.36,1.08-1.08c0.03-0.33-0.06-0.62-0.27-0.87
		C400.09,12.64,399.82,12.51,399.47,12.51z"/>
	<path d="M213.43,41.08l-3.05-5.39c-0.28,0.04-0.86,0.06-1.73,0.06v5.33H205V27.11h3.65v5.47c1.08,0,1.75-0.07,2.03-0.22
		c0.29-0.15,0.52-0.42,0.68-0.81c0.16-0.39,0.35-1.07,0.58-2.03c0.24-0.96,0.76-1.68,1.57-2.16c0.8-0.48,1.96-0.56,3.48-0.24v2.45
		c-0.94-0.07-1.51,0.27-1.69,1c-0.48,1.74-1.05,2.98-1.72,3.71c0.35,0.53,0.97,1.51,1.87,2.94s1.61,2.53,2.11,3.3v0.54h-4.13V41.08z
		"/>
	<path d="M224.3,38.13h1.77v2.95h-7.2v-2.95h1.77v-8.06h-1.62v-2.95h6.88v2.95h-1.62v8.06H224.3z"/>
	<path d="M232.19,41.06h-3.65V27.09c0.01,0,1.04,0,3.08-0.01s3.07,0,3.08,0.01c1.58,0,2.82,0.52,3.71,1.57
		c0.89,1.04,1.32,2.27,1.3,3.68c0,1.38-0.44,2.58-1.33,3.59c-0.88,1.01-2.11,1.52-3.68,1.52h-2.51L232.19,41.06L232.19,41.06z
		 M232.13,34.28h2.57c0.45,0,0.82-0.2,1.1-0.61s0.42-0.88,0.42-1.43c0-0.53-0.13-0.99-0.4-1.39c-0.27-0.39-0.64-0.59-1.12-0.59
		h-2.57L232.13,34.28L232.13,34.28z"/>
	<path d="M255.22,34.1c0,2.13-0.67,3.87-2,5.22c-1.34,1.35-3.06,2.03-5.17,2.03c-0.94,0-1.84-0.15-2.68-0.46
		c-0.84-0.31-1.6-0.75-2.27-1.34s-1.2-1.35-1.6-2.29c-0.39-0.94-0.59-1.99-0.59-3.16c0-1.54,0.35-2.88,1.06-4s1.59-1.95,2.66-2.47
		c1.07-0.53,2.23-0.79,3.48-0.79c0.9,0,1.78,0.16,2.62,0.47s1.6,0.76,2.27,1.35c0.67,0.58,1.21,1.35,1.62,2.28
		C255.02,31.87,255.22,32.93,255.22,34.1z M244.56,34.1c0,1.18,0.35,2.11,1.04,2.78c0.69,0.67,1.52,1.01,2.47,1.01
		c0.94,0,1.76-0.34,2.46-1.01c0.7-0.67,1.05-1.6,1.05-2.78s-0.35-2.11-1.04-2.78c-0.69-0.67-1.5-1.01-2.43-1.01
		c-0.98,0-1.82,0.33-2.51,0.99C244.9,31.95,244.56,32.89,244.56,34.1z"/>
	<path d="M268.07,31.34c0,0.44-0.11,0.88-0.32,1.33s-0.49,0.81-0.84,1.09c0.56,0.28,0.99,0.69,1.29,1.22
		c0.3,0.53,0.45,1.12,0.45,1.78c0,1.24-0.39,2.25-1.17,3.05s-1.86,1.2-3.26,1.2h-6.72V27.05h6.16c1.3,0,2.36,0.39,3.18,1.18
		S268.07,30.05,268.07,31.34z M263.4,30.23h-2.25v2.33h2.25c0.33,0,0.59-0.11,0.78-0.32s0.29-0.47,0.3-0.78
		c0.01-0.33-0.08-0.62-0.27-0.87C264.01,30.35,263.75,30.23,263.4,30.23z M263.94,35.51h-2.79v2.32h2.81c0.64,0,1-0.36,1.08-1.08
		c0.03-0.33-0.06-0.62-0.27-0.87C264.56,35.64,264.28,35.51,263.94,35.51z"/>
	<path d="M284.5,34.1c0,2.13-0.67,3.87-2,5.22c-1.34,1.35-3.06,2.03-5.17,2.03c-0.94,0-1.84-0.15-2.68-0.46
		c-0.84-0.31-1.6-0.75-2.27-1.34c-0.67-0.59-1.2-1.35-1.59-2.29c-0.39-0.94-0.59-1.99-0.59-3.16c0-1.54,0.35-2.88,1.06-4
		c0.71-1.12,1.59-1.95,2.66-2.47s2.23-0.79,3.48-0.79c0.9,0,1.78,0.16,2.62,0.47s1.6,0.76,2.27,1.35c0.67,0.58,1.21,1.35,1.62,2.28
		C284.29,31.87,284.5,32.93,284.5,34.1z M273.83,34.1c0,1.18,0.35,2.11,1.04,2.78s1.52,1.01,2.47,1.01c0.94,0,1.76-0.34,2.46-1.01
		c0.7-0.67,1.05-1.6,1.05-2.78s-0.35-2.11-1.04-2.78s-1.5-1.01-2.43-1.01c-0.98,0-1.82,0.33-2.51,0.99
		C274.17,31.95,273.83,32.89,273.83,34.1z"/>
	<path d="M295.44,30.31h-5.06v10.77h-3.63V27.11h8.69V30.31z"/>
	<path d="M300.91,41.06h-3.65V27.09c0.01,0,1.04,0,3.08-0.01c2.04-0.01,3.07,0,3.08,0.01c1.58,0,2.82,0.52,3.71,1.57
		c0.89,1.04,1.32,2.27,1.3,3.68c0,1.38-0.44,2.58-1.33,3.59s-2.11,1.52-3.68,1.52h-2.51L300.91,41.06L300.91,41.06z M300.85,34.28
		h2.57c0.45,0,0.82-0.2,1.1-0.61s0.42-0.88,0.42-1.43c0-0.53-0.13-0.99-0.4-1.39s-0.64-0.59-1.12-0.59h-2.57L300.85,34.28
		L300.85,34.28z"/>
	<path d="M318.45,39.34h-5.22l-0.8,1.74h-3.81v-0.5l6.4-13.61h1.68l6.34,13.61v0.5h-3.77L318.45,39.34z M315.84,32.92l-1.44,3.37
		h2.89L315.84,32.92z"/>
	<path d="M323.4,37.99h0.52c0.52-0.01,0.87-0.14,1.06-0.39s0.32-0.71,0.4-1.39l1.06-9.1h9.63v10.87h1.4v4.73h-2.95v-1.64h-8.33v1.64
		h-2.77v-4.72H323.4z M329.6,30.25l-0.64,6.09c-0.07,0.87-0.28,1.44-0.64,1.74h4.11v-7.82h-2.83V30.25z"/>
	<path d="M339.19,34.12c0-1.16,0.2-2.2,0.61-3.13c0.41-0.93,0.95-1.68,1.63-2.25s1.44-1.01,2.27-1.31c0.84-0.3,1.71-0.45,2.63-0.45
		c1.01,0,1.96,0.17,2.86,0.52s1.69,0.93,2.39,1.76s1.13,1.83,1.31,3.01h-3.51c-0.47-1.33-1.48-2-3.05-2c-1.05,0-1.89,0.35-2.53,1.05
		c-0.64,0.7-0.96,1.63-0.96,2.78c0,1.04,0.32,1.93,0.97,2.67c0.64,0.75,1.49,1.12,2.52,1.12c0.78,0,1.45-0.19,1.99-0.56
		c0.54-0.37,0.91-0.92,1.1-1.66h3.51c-0.17,1.26-0.6,2.32-1.3,3.18c-0.69,0.86-1.49,1.47-2.38,1.83c-0.9,0.36-1.87,0.54-2.92,0.54
		c-0.9,0-1.78-0.15-2.62-0.46c-0.84-0.31-1.61-0.75-2.28-1.32c-0.68-0.57-1.22-1.32-1.63-2.25S339.19,35.25,339.19,34.12z"/>
	<path d="M358.62,27.11v4.17h2.57c0.72,0,1.38,0.11,1.97,0.33c0.6,0.22,1.09,0.52,1.48,0.9s0.72,0.82,1,1.31
		c0.27,0.49,0.44,1.01,0.5,1.55s0.06,1.08,0,1.62c-0.06,0.54-0.23,1.05-0.5,1.55c-0.27,0.49-0.61,0.93-1,1.31s-0.89,0.68-1.48,0.91
		c-0.6,0.23-1.26,0.34-1.97,0.34h-6.12V27.11H358.62z M361.19,34.5h-2.57v3.37h2.57c0.38,0,0.71-0.12,0.98-0.35s0.43-0.52,0.48-0.85
		c0.05-0.33,0.05-0.66-0.02-0.99c-0.07-0.33-0.23-0.61-0.49-0.84S361.56,34.5,361.19,34.5z"/>
	<path d="M376.54,41.08l-3.05-5.39c-0.28,0.04-0.86,0.06-1.74,0.06v5.33h-3.65V27.11h3.65v5.47c1.08,0,1.75-0.07,2.03-0.22
		c0.29-0.15,0.52-0.42,0.68-0.81s0.35-1.07,0.58-2.03c0.24-0.96,0.76-1.68,1.57-2.16c0.8-0.48,1.96-0.56,3.48-0.24v2.45
		c-0.94-0.07-1.51,0.27-1.69,1c-0.48,1.74-1.05,2.98-1.71,3.71c0.35,0.53,0.97,1.51,1.87,2.94s1.61,2.53,2.11,3.3v0.54h-4.13V41.08z
		"/>
	<path d="M396.1,34.1c0,2.13-0.67,3.87-2,5.22c-1.34,1.35-3.06,2.03-5.17,2.03c-0.94,0-1.84-0.15-2.68-0.46
		c-0.84-0.31-1.6-0.75-2.27-1.34c-0.67-0.59-1.2-1.35-1.6-2.29c-0.39-0.94-0.59-1.99-0.59-3.16c0-1.54,0.35-2.88,1.06-4
		s1.59-1.95,2.66-2.47s2.23-0.79,3.48-0.79c0.9,0,1.78,0.16,2.62,0.47s1.6,0.76,2.27,1.35s1.21,1.35,1.62,2.28
		C395.9,31.87,396.1,32.93,396.1,34.1z M385.43,34.1c0,1.18,0.34,2.11,1.04,2.78s1.52,1.01,2.47,1.01c0.94,0,1.77-0.34,2.46-1.01
		c0.7-0.67,1.05-1.6,1.05-2.78s-0.35-2.11-1.04-2.78s-1.5-1.01-2.43-1.01c-0.98,0-1.82,0.33-2.51,0.99S385.43,32.89,385.43,34.1z"/>
	<path d="M400.29,25.59c-0.36,0.31-0.8,0.47-1.34,0.47c-0.53,0-0.98-0.16-1.34-0.47s-0.54-0.72-0.54-1.23s0.18-0.92,0.54-1.24
		c0.36-0.32,0.8-0.48,1.34-0.48c0.53,0,0.98,0.16,1.34,0.48s0.54,0.73,0.54,1.24S400.65,25.28,400.29,25.59z M403.24,38.13h1.77
		v2.95h-7.2v-2.95h1.77v-8.06h-1.62v-2.95h6.88v2.95h-1.62v8.06H403.24z M404.04,26.06c-0.54,0-0.99-0.16-1.35-0.47
		c-0.35-0.31-0.53-0.72-0.53-1.23s0.18-0.92,0.54-1.24c0.36-0.32,0.8-0.48,1.34-0.48c0.53,0,0.97,0.16,1.33,0.48
		c0.35,0.32,0.53,0.73,0.53,1.24s-0.18,0.92-0.53,1.23C405.01,25.9,404.57,26.06,404.04,26.06z"/>
	<path d="M425.81,34.1c0,2.13-0.67,3.87-2,5.22c-1.34,1.35-3.06,2.03-5.17,2.03c-0.94,0-1.84-0.15-2.68-0.46
		c-0.84-0.31-1.6-0.75-2.27-1.34c-0.67-0.59-1.2-1.35-1.6-2.29c-0.39-0.94-0.59-1.99-0.59-3.16c0-1.54,0.35-2.88,1.06-4
		s1.59-1.95,2.66-2.47s2.23-0.79,3.48-0.79c0.9,0,1.78,0.16,2.62,0.47s1.6,0.76,2.27,1.35s1.21,1.35,1.62,2.28
		C425.61,31.87,425.81,32.93,425.81,34.1z M415.15,34.1c0,1.18,0.34,2.11,1.04,2.78s1.52,1.01,2.47,1.01c0.94,0,1.77-0.34,2.46-1.01
		c0.7-0.67,1.05-1.6,1.05-2.78s-0.35-2.11-1.04-2.78s-1.5-1.01-2.43-1.01c-0.98,0-1.82,0.33-2.51,0.99S415.15,32.89,415.15,34.1z"/>
	<path d="M431.64,30.31v1.82h2.57c1.62,0,2.86,0.41,3.72,1.22c0.86,0.81,1.29,1.86,1.29,3.15c0,1.3-0.44,2.39-1.31,3.27
		s-2.1,1.32-3.7,1.32h-6.14V27.11h10.03v3.19L431.64,30.31L431.64,30.31z M434.19,35.16h-2.55v2.73h2.55c0.46,0,0.83-0.14,1.09-0.41
		s0.39-0.59,0.39-0.97c0-0.39-0.13-0.71-0.39-0.97S434.65,35.16,434.19,35.16z"/>
	<path d="M446.37,30.37l-0.54,6.41c-0.12,1.36-0.37,2.36-0.75,3.01s-0.97,1.07-1.77,1.27c-0.8,0.19-1.86,0.18-3.18-0.05l0.06-2.61
		c0.77,0.07,1.28-0.01,1.53-0.24c0.25-0.23,0.41-0.72,0.49-1.5l0.98-9.54h9.85v13.97h-3.63V30.37H446.37z"/>
	<path d="M464.12,39.34h-5.22l-0.8,1.74h-3.81v-0.5l6.4-13.61h1.67l6.34,13.61v0.5h-3.77L464.12,39.34z M461.51,32.92l-1.44,3.37
		h2.89L461.51,32.92z"/>
	<path d="M469.26,34.12c0-1.16,0.2-2.2,0.61-3.13c0.41-0.93,0.95-1.68,1.62-2.25c0.68-0.57,1.44-1.01,2.27-1.31
		c0.84-0.3,1.71-0.45,2.63-0.45c1.01,0,1.96,0.17,2.86,0.52s1.69,0.93,2.39,1.76s1.13,1.83,1.31,3.01h-3.51
		c-0.47-1.33-1.48-2-3.05-2c-1.05,0-1.89,0.35-2.53,1.05c-0.64,0.7-0.96,1.63-0.96,2.78c0,1.04,0.32,1.93,0.97,2.67
		c0.65,0.75,1.49,1.12,2.52,1.12c0.78,0,1.45-0.19,1.99-0.56s0.91-0.92,1.1-1.66H483c-0.17,1.26-0.6,2.32-1.3,3.18
		c-0.69,0.86-1.49,1.47-2.38,1.83c-0.9,0.36-1.87,0.54-2.92,0.54c-0.9,0-1.78-0.15-2.62-0.46c-0.84-0.31-1.6-0.75-2.28-1.32
		s-1.22-1.32-1.62-2.25S469.26,35.25,469.26,34.12z"/>
	<path d="M487.45,30.31h-3.43v-3.19h10.37v3.19h-3.41v10.77h-3.53V30.31z"/>
	<path d="M501.15,38.13h1.77v2.95h-7.2v-2.95h1.77v-8.06h-1.62v-2.95h6.88v2.95h-1.62v8.06H501.15z"/>
</g>
<g>
	<path d="M30.78,37.36H15.29l-2.37,5.15H1.63v-1.48L20.61,0.68h4.97l18.8,40.35v1.48H33.2L30.78,37.36z M23.03,18.31l-4.26,10h8.57
		L23.03,18.31z"/>
	<path d="M59.04,42.45H48.22V1.04c0.04,0,3.08-0.01,9.13-0.03s9.1-0.01,9.13,0.03c4.69,0,8.36,1.55,11,4.64
		c2.64,3.1,3.92,6.73,3.84,10.92c0,4.1-1.31,7.65-3.93,10.65s-6.26,4.5-10.91,4.5h-7.45v10.7H59.04z M58.86,22.33h7.63
		c1.34,0,2.42-0.6,3.25-1.8c0.83-1.2,1.24-2.61,1.24-4.23c0-1.58-0.39-2.95-1.18-4.11s-1.89-1.75-3.31-1.75h-7.63
		C58.86,10.44,58.86,22.33,58.86,22.33z"/>
	<path d="M102.97,12.4h0.24l6.68-11.3h11.65v1.6L109.6,20.57l13.36,20.41v1.54H110.9l-7.63-12.96h-0.35l-7.57,12.96H83.16v-1.54
		l13.42-20.41l-12-17.87V1.1h11.71L102.97,12.4z"/>
	<path d="M142.4,33.75h5.26v8.76h-21.34v-8.76h5.26V9.85h-4.79V1.1h20.4v8.76h-4.79V33.75z"/>
	<path d="M186.33,13.64c0,1.3-0.32,2.61-0.95,3.93c-0.63,1.32-1.46,2.4-2.48,3.22c1.66,0.83,2.93,2.03,3.81,3.61
		c0.89,1.58,1.33,3.33,1.33,5.27c0,3.67-1.15,6.69-3.46,9.05s-5.53,3.55-9.67,3.55H155V0.92h18.27c3.86,0,7.01,1.16,9.43,3.49
		C185.12,6.74,186.33,9.81,186.33,13.64z M172.5,10.32h-6.68v6.92h6.68c0.98,0,1.75-0.32,2.31-0.95c0.55-0.63,0.85-1.4,0.89-2.31
		c0.04-0.99-0.23-1.84-0.8-2.57C174.32,10.69,173.52,10.32,172.5,10.32z M174.09,26h-8.28v6.86h8.34c1.89,0,2.96-1.06,3.19-3.19
		c0.08-0.99-0.19-1.84-0.8-2.57S175.12,26,174.09,26z"/>
</g>
</svg>
